<svg xmlns="http://www.w3.org/2000/svg" width="41.99" height="44.16" viewBox="0 0 41.99 44.16">
  <title>Fichier 3</title>
  <g id="Calque_2" data-name="Calque 2">
    <g id="Calque_1-2" data-name="Calque 1">
      <path d="M38.4,16.34l-2.94,6.39-5.12.47,3-6.57-7.82.71-3,6.57-5.08.46,3-6.57-7.86.72-3,6.57-5.08.46,3-6.57h0l.2-.06L2.49,14.58,7.28,12.8l5.22,4.35,7.39-2.73-5.18-4.35,4.75-1.73,5.22,4.35,7.43-2.78L26.89,5.6l4.75-1.73,4.86,4A3,3,0,0,0,36.87,5l-1-2.8a2.42,2.42,0,0,0-.26-.56A2.64,2.64,0,0,0,32.19.17L1.78,11.33A2.66,2.66,0,0,0,.16,14.71l.23.65h0l1,2.72c0,.08.06.2.11.28l.9,2.48.08,0L3,25.66l0,.42,1.4,15.4c.15,1.66,1.9,2.85,3.89,2.67l30.34-2.77c2-.18,3.5-1.66,3.35-3.33l-1.4-15.4,0-.42-.36-4A2.07,2.07,0,0,0,38.4,16.34Z" style="fill: #fff"/>
    </g>
  </g>
</svg>
