<?xml version="1.0" encoding="utf-8"?>
<!-- Generator: Adobe Illustrator 20.1.0, SVG Export Plug-In . SVG Version: 6.00 Build 0)  -->
<svg version="1.1" id="Calque_1" xmlns="http://www.w3.org/2000/svg" xmlns:xlink="http://www.w3.org/1999/xlink" x="0px" y="0px"
	 viewBox="0 0 40 37" style="enable-background:new 0 0 40 37;" xml:space="preserve">
<style type="text/css">
	.st0{enable-background:new    ;}
	.st1{fill:#FFFFFF;}
</style>
<title>Fichier 4</title>
<g id="Calque_2">
	<g id="Calque_1-2">
		<g class="st0">
			<path class="st1" d="M33.7,22.6l6.1,5.1c-3.2,4.4-8.5,7.7-13.7,8.4C17.5,37.2,10,33,6.8,25.9l-5.1,0.7l-0.5-3.9l4.3-0.6
				c-0.1-0.5-0.2-1.1-0.3-1.6c-0.1-0.6-0.1-1.2-0.1-1.8l-4.4,0.6l-0.5-3.9l5.2-0.7C6.9,7.2,13.1,1.4,21.7,0.3c5.2-0.7,11,0.9,15,4.2
				l-4.5,7.1C29.6,9,26,7.6,22.9,8c-3.4,0.4-6,2.5-7.4,5.3l11.1-1.4l0.5,3.9l-12.5,1.6c0,0.6,0,1.1,0.1,1.7s0.2,1.2,0.4,1.7
				l12.5-1.6l0.5,3.9l-11.1,1.4c2,2.4,5.1,3.8,8.5,3.3C28.4,27.5,31.5,25.5,33.7,22.6z"/>
		</g>
	</g>
</g>
</svg>
