<svg xmlns="http://www.w3.org/2000/svg" width="217.73" height="159.35" viewBox="0 0 217.73 159.35">
  <title>Fichier 2</title>
  <g id="Calque_2" data-name="Calque 2">
    <g id="Calque_1-2" data-name="Calque 1">
      <path id="logo" d="M143.21,99.15a9.33,9.33,0,0,1,3.59,3.93,12.9,12.9,0,0,1,1.27,5.84,12.6,12.6,0,0,1-1.25,5.74,9.23,9.23,0,0,1-3.53,3.85,10.08,10.08,0,0,1-5.3,1.37,8.92,8.92,0,0,1-4-.87,8.06,8.06,0,0,1-3-2.52v11h-6.21V98H131v3.18a7.75,7.75,0,0,1,2.92-2.52,8.75,8.75,0,0,1,3.93-.87A10.18,10.18,0,0,1,143.21,99.15Zm-2.92,13.9a7,7,0,0,0,0-8.62,4.94,4.94,0,0,0-3.87-1.67,5,5,0,0,0-3.89,1.67,6.93,6.93,0,0,0,0,8.64,5,5,0,0,0,3.89,1.65A4.94,4.94,0,0,0,140.29,113.05Zm25.1,6.59V117.1a7,7,0,0,1-2.82,2.1,10.27,10.27,0,0,1-4,.73,7.67,7.67,0,0,1-5.44-1.87,6.37,6.37,0,0,1-2-4.9,5.76,5.76,0,0,1,2.16-4.77,9.77,9.77,0,0,1,6.1-1.75h6v-.4a3.28,3.28,0,0,0-1.15-2.68,5.18,5.18,0,0,0-3.36-.95,13.41,13.41,0,0,0-6.45,1.89l-1.93-4.27a25.93,25.93,0,0,1,4.84-1.89,19.14,19.14,0,0,1,5-.6A10.06,10.06,0,0,1,169,99.77a7.25,7.25,0,0,1,2.44,5.72l0,14.14Zm-1.73-5.08a3.62,3.62,0,0,0,1.69-2.34v-1.93h-4.88a4.87,4.87,0,0,0-2.68.58,2.1,2.1,0,0,0-.87,1.87,2.45,2.45,0,0,0,.91,2,3.78,3.78,0,0,0,2.48.75A6,6,0,0,0,163.66,114.56Zm24.14-11.79a10.49,10.49,0,0,0-3.1-.54,3.56,3.56,0,0,0-1.81.4,1.31,1.31,0,0,0-.69,1.21,1.5,1.5,0,0,0,.93,1.37,17.79,17.79,0,0,0,3,1.09,31.85,31.85,0,0,1,3.79,1.35,7.07,7.07,0,0,1,2.58,2,5.22,5.22,0,0,1,1.09,3.45,5.84,5.84,0,0,1-2.48,5,10.56,10.56,0,0,1-6.35,1.79,16.69,16.69,0,0,1-5.12-.79,13.18,13.18,0,0,1-4.27-2.24l2-4.19a12.68,12.68,0,0,0,3.69,2,11.75,11.75,0,0,0,3.85.71,4,4,0,0,0,2-.42,1.37,1.37,0,0,0,.75-1.27,1.61,1.61,0,0,0-.95-1.45,15.91,15.91,0,0,0-3-1.13,30.54,30.54,0,0,1-3.69-1.29,6.56,6.56,0,0,1-2.52-2,5.28,5.28,0,0,1-1-3.41,5.83,5.83,0,0,1,2.42-5A10.09,10.09,0,0,1,185,97.68a16.27,16.27,0,0,1,4.43.62,14.8,14.8,0,0,1,4,1.79l-2.14,4.23A18.07,18.07,0,0,0,187.8,102.78Zm20.91,0a10.49,10.49,0,0,0-3.1-.54,3.56,3.56,0,0,0-1.81.4,1.31,1.31,0,0,0-.69,1.21,1.5,1.5,0,0,0,.93,1.37,17.79,17.79,0,0,0,3,1.09,31.85,31.85,0,0,1,3.79,1.35,7.07,7.07,0,0,1,2.58,2,5.22,5.22,0,0,1,1.09,3.45,5.84,5.84,0,0,1-2.48,5,10.56,10.56,0,0,1-6.35,1.79,16.69,16.69,0,0,1-5.12-.79,13.18,13.18,0,0,1-4.27-2.24l2-4.19a12.68,12.68,0,0,0,3.69,2,11.75,11.75,0,0,0,3.85.71,4,4,0,0,0,2-.42,1.37,1.37,0,0,0,.75-1.27,1.61,1.61,0,0,0-.95-1.45,15.91,15.91,0,0,0-3-1.13,30.54,30.54,0,0,1-3.69-1.29,6.56,6.56,0,0,1-2.52-2,5.28,5.28,0,0,1-1-3.41,5.83,5.83,0,0,1,2.42-5,10.09,10.09,0,0,1,6.12-1.77,16.27,16.27,0,0,1,4.43.62,14.8,14.8,0,0,1,4,1.79l-2.14,4.23A18.07,18.07,0,0,0,208.71,102.78Zm-121.51,34a8.65,8.65,0,0,0-3.93-1,8.45,8.45,0,0,0-7.45,4.35,9,9,0,0,0-1.13,4.47,9.1,9.1,0,0,0,1.13,4.49,8.5,8.5,0,0,0,3.1,3.22,8.27,8.27,0,0,0,4.35,1.19,9.09,9.09,0,0,0,3.85-.91,12.08,12.08,0,0,0,3.49-2.44l3.75,4.07a17,17,0,0,1-5.3,3.71,14.75,14.75,0,0,1-6.1,1.37,15,15,0,0,1-7.54-1.91,14,14,0,0,1-5.32-5.26,14.62,14.62,0,0,1-1.93-7.45,14.07,14.07,0,0,1,7.39-12.57,15.59,15.59,0,0,1,7.64-1.89A15.92,15.92,0,0,1,94.32,135l-3.71,4.55A10.71,10.71,0,0,0,87.2,136.81Zm31.41.42v21.68h-6.17v-3.83a7.63,7.63,0,0,1-7.25,4.07,7.47,7.47,0,0,1-5.7-2.24,8.46,8.46,0,0,1-2.12-6.06V137.23h6.21v11.85a4.55,4.55,0,0,0,1.09,3.22,3.87,3.87,0,0,0,3,1.17,4.46,4.46,0,0,0,3.51-1.57,5.92,5.92,0,0,0,1.29-3.95V137.23Zm6.2-8.22H131v29.9h-6.21Zm25.83,28.69a10.13,10.13,0,0,1-2.68,1.11,11.72,11.72,0,0,1-3,.38,7,7,0,0,1-4.92-1.73,6.38,6.38,0,0,1-1.89-5v-10h-3V138.2h3v-6h6.16v6h5.88v4.31h-5.88v8.95q0,2.5,2,2.5a7,7,0,0,0,3-.81ZM175,137.23v21.68h-6.17v-3.83a7.63,7.63,0,0,1-7.25,4.07,7.47,7.47,0,0,1-5.7-2.24,8.46,8.46,0,0,1-2.12-6.06V137.23H160v11.85A4.55,4.55,0,0,0,161,152.3a3.87,3.87,0,0,0,3,1.17,4.46,4.46,0,0,0,3.51-1.57,5.92,5.92,0,0,0,1.29-3.95V137.23Zm15.15.85a8.61,8.61,0,0,1,4.23-1.09v5.84a8.59,8.59,0,0,0-1,0,6.4,6.4,0,0,0-4.53,1.55,5.36,5.36,0,0,0-1.67,4.13v10.44H181V137.23h6.21v3.91A7.89,7.89,0,0,1,190.13,138.08Zm24.88,2q2.72,3,2.72,8.42,0,1,0,1.49H202.14a5.51,5.51,0,0,0,5.6,4.35,7.61,7.61,0,0,0,2.94-.58,7.77,7.77,0,0,0,2.54-1.71l3.26,3.3a11,11,0,0,1-4,2.84,13.49,13.49,0,0,1-5.26,1,12.49,12.49,0,0,1-6-1.37,9.6,9.6,0,0,1-3.95-3.87,12.68,12.68,0,0,1,0-11.58,9.88,9.88,0,0,1,3.95-3.91,11.88,11.88,0,0,1,5.8-1.39Q212.29,137,215,140.05Zm-3.12,6.25a4.91,4.91,0,0,0-1.37-3.43,4.63,4.63,0,0,0-3.43-1.29,4.72,4.72,0,0,0-3.36,1.27A5.9,5.9,0,0,0,202,146.3Zm-142.77-25a.7.7,0,0,1-.69-.61L66.06,101.9a.7.7,0,0,1,1.38-.17l2.37,18.75a.7.7,0,0,1-.6.78Zm-7.49-1.45a.7.7,0,0,1-.7-.7v-8a.7.7,0,1,1,1.39,0v8A.7.7,0,0,1,61.63,119.82Zm22.48-1.07a.7.7,0,0,1-.65-.44l-4.1-10.35a.7.7,0,0,1,1.29-.51l4.1,10.35a.7.7,0,0,1-.65,1Zm6-5a.7.7,0,0,1-.61-.36l-3-5.5a.7.7,0,0,1,1.22-.67l3,5.5a.7.7,0,0,1-.61,1Zm-15.43-1a.7.7,0,0,1-.67-.52l-1-4a.7.7,0,0,1,1.35-.35l1,4a.7.7,0,0,1-.5.85Zm-13-4a.7.7,0,0,1-.7-.7v-14a.7.7,0,1,1,1.39,0v14A.7.7,0,0,1,61.63,108.75Zm-41.8-2.27a.7.7,0,0,1-.51-1.17l4.61-4.91a.7.7,0,0,1,1,1l-4.61,4.91A.69.69,0,0,1,19.84,106.48Zm83.6,0a.69.69,0,0,1-.51-.22L91.85,94.47a.7.7,0,0,1,1-1l11.08,11.79a.7.7,0,0,1-.51,1.17Zm-10.15-1a.69.69,0,0,1-.56-.29l-4.13-5.68a.7.7,0,0,1,1.13-.82l4.13,5.68a.7.7,0,0,1-.56,1.1Zm-8.16-.84a.7.7,0,0,1-.61-.36l-10-18.24a.7.7,0,1,1,1.22-.67l10,18.24a.7.7,0,0,1-.61,1Zm-12.56-.18a.7.7,0,0,1-.67-.52l-2.09-8.15a.7.7,0,0,1,1.35-.35l2.09,8.15a.7.7,0,0,1-.5.85ZM77.86,103a.7.7,0,0,1-.65-.44L70.68,86A.7.7,0,0,1,72,85.49L78.51,102a.7.7,0,0,1-.65,1Zm30.82-2.07a.69.69,0,0,1-.44-.16l-6.56-5.42a.7.7,0,1,1,.89-1.07l6.56,5.42a.7.7,0,0,1-.44,1.23Zm-81.75-2a.7.7,0,0,1-.51-1.17L37,86.5a.7.7,0,0,1,1,1L27.44,98.7A.69.69,0,0,1,26.93,98.92Zm-9.57-.33a.7.7,0,0,1-.44-1.23L25.81,90a.7.7,0,0,1,.89,1.07L17.8,98.44A.69.69,0,0,1,17.36,98.59Zm70.11-1.07a.69.69,0,0,1-.56-.29l-4.4-6.05a.7.7,0,1,1,1.13-.82L88,96.42a.7.7,0,0,1-.56,1.1ZM66.1,97.38a.7.7,0,0,1-.69-.61L64,85.85a.7.7,0,1,1,1.38-.17L66.8,96.6a.7.7,0,0,1-.6.78Zm3.64-3.83a.7.7,0,0,1-.67-.52l-1.82-7.1a.7.7,0,1,1,1.35-.35l1.82,7.1a.7.7,0,0,1-.5.85Zm29-.85a.69.69,0,0,1-.44-.16L84.24,80.88a.7.7,0,1,1,.89-1.07L99.22,91.46a.7.7,0,0,1-.44,1.23Zm-8.68-.42a.69.69,0,0,1-.51-.22l-7.83-8.34a.7.7,0,1,1,1-1L90.6,91.1a.7.7,0,0,1-.51,1.17Zm-28.46-.93a.7.7,0,0,1-.7-.7V85.76a.7.7,0,0,1,1.39,0v4.89A.7.7,0,0,1,61.63,91.35ZM15.95,91a.7.7,0,0,1-.37-1.28l5.19-3.29a.7.7,0,1,1,.75,1.17l-5.19,3.29A.69.69,0,0,1,15.95,91Zm90.36-.64a.69.69,0,0,1-.37-.11l-5.6-3.55a.7.7,0,0,1,.75-1.17l5.6,3.55a.7.7,0,0,1-.37,1.28ZM81.29,89a.69.69,0,0,1-.56-.29l-2.33-3.2a.7.7,0,0,1,1.13-.82l2.33,3.2a.7.7,0,0,1-.56,1.1Zm-51.86-.42A.7.7,0,0,1,29,87.38l9.15-7.57A.7.7,0,0,1,39,80.88l-9.15,7.57A.69.69,0,0,1,29.43,88.61ZM6.39,88a.7.7,0,0,1-.3-1.33l7.4-3.48a.7.7,0,0,1,.59,1.26L6.68,87.9A.69.69,0,0,1,6.39,88Zm108-1.15a.69.69,0,0,1-.3-.07l-12.71-6a.7.7,0,1,1,.59-1.26l12.71,6a.7.7,0,0,1-.3,1.33Zm-90.82-.72a.7.7,0,0,1-.37-1.28L30.9,80a.7.7,0,1,1,.75,1.17L24,86A.69.69,0,0,1,23.62,86.09Zm16.55-1.27a.7.7,0,0,1-.51-1.17l.84-.89a.7.7,0,1,1,1,1l-.84.89A.69.69,0,0,1,40.17,84.83Zm57.35-.08a.69.69,0,0,1-.37-.11L92,81.37a.7.7,0,0,1,.75-1.17l5.15,3.27a.7.7,0,0,1-.37,1.28ZM16.58,83.17a.7.7,0,0,1-.3-1.33l20.58-9.68a.7.7,0,1,1,.59,1.26L16.88,83.1A.69.69,0,0,1,16.58,83.17ZM119.7,80.84a.69.69,0,0,1-.22,0L109,77.38a.7.7,0,1,1,.43-1.32l10.54,3.42a.7.7,0,0,1-.21,1.36ZM5.39,80.24a.7.7,0,0,1-.21-1.36l14.23-4.62a.7.7,0,1,1,.43,1.32L5.6,80.21A.69.69,0,0,1,5.39,80.24ZM90,80a.69.69,0,0,1-.37-.11l-4-2.57a.7.7,0,0,1,.75-1.17l4,2.57A.7.7,0,0,1,90,80Zm-56.2-.35a.7.7,0,0,1-.37-1.28L37,76.11a.7.7,0,0,1,.75,1.17l-3.52,2.24A.69.69,0,0,1,33.81,79.62Zm65-.17a.69.69,0,0,1-.3-.07l-12.69-6a.7.7,0,1,1,.59-1.26l12.69,6a.7.7,0,0,1-.3,1.33Zm7.76-2.89a.69.69,0,0,1-.22,0L89.89,71.19a.7.7,0,1,1,.43-1.32l16.45,5.35a.7.7,0,0,1-.21,1.36ZM22.61,74.65a.7.7,0,0,1-.21-1.36l14.54-4.73a.7.7,0,0,1,.43,1.32L22.83,74.61A.69.69,0,0,1,22.61,74.65ZM8.07,72.19a.7.7,0,0,1-.13-1.38l7.22-1.38a.7.7,0,0,1,.26,1.37L8.2,72.17Zm105.12-.38h-.13l-12.57-2.4a.7.7,0,1,1,.26-1.37l12.57,2.4a.7.7,0,0,1-.13,1.38ZM87,70.21a.69.69,0,0,1-.22,0l-.87-.28a.7.7,0,1,1,.43-1.32l.87.28A.7.7,0,0,1,87,70.21ZM19.2,70.06a.7.7,0,0,1-.13-1.38l9.49-1.81a.7.7,0,0,1,.26,1.37l-9.49,1.81Zm76.54-1.59h-.13L86,66.63a.7.7,0,1,1,.26-1.37l9.63,1.84a.7.7,0,0,1-.13,1.38Zm-63.45-.91a.7.7,0,0,1-.13-1.38L37,65.26a.7.7,0,1,1,.26,1.37l-4.87.93Zm90.28-1.76h0l-9.38-.59a.7.7,0,1,1,.09-1.39l9.38.59a.7.7,0,0,1,0,1.39Zm-119-.18a.7.7,0,0,1,0-1.39l15.34-1a.7.7,0,0,1,.09,1.39l-15.34,1Zm105.12-.69h0l-11.16-.7a.7.7,0,1,1,.09-1.39l11.16.7a.7.7,0,0,1,0,1.39Zm-86.07-.5a.7.7,0,0,1,0-1.39l9.68-.61a.7.7,0,0,1,.09,1.39l-9.68.61Zm72-.38h0l-8.49-.53a.7.7,0,0,1,.09-1.39l8.49.53a.7.7,0,0,1,0,1.39Zm-59.33-.42a.7.7,0,0,1,0-1.39l1.88-.12a.7.7,0,1,1,.09,1.39l-1.88.12Zm1.88-3.2h0l-8.49-.53a.7.7,0,1,1,.09-1.39L37.2,59a.7.7,0,0,1,0,1.39Zm48.95,0a.7.7,0,0,1,0-1.39l1.88-.12A.7.7,0,0,1,88,60.31l-1.88.12ZM91,60.12a.7.7,0,0,1,0-1.39l9.68-.61a.7.7,0,0,1,.09,1.39L91,60.12Zm-65.23-.41h0L14.54,59a.7.7,0,1,1,.09-1.39l11.16.7a.7.7,0,0,1,0,1.39Zm78.62-.43a.7.7,0,0,1,0-1.39l15.34-1a.7.7,0,1,1,.09,1.39l-15.34,1Zm-94.28-.56h0L.65,58.13A.7.7,0,0,1,0,57.4a.7.7,0,0,1,.74-.65l9.38.59a.7.7,0,0,1,0,1.39Zm76-1.43A.7.7,0,0,1,86,55.92L90.85,55a.7.7,0,1,1,.26,1.37l-4.87.93Zm-48.95,0H37L27.4,55.45a.7.7,0,0,1,.26-1.37l9.63,1.84a.7.7,0,0,1-.13,1.38Zm57.42-1.62a.7.7,0,0,1-.13-1.38l9.49-1.81a.7.7,0,0,1,.26,1.37l-9.49,1.81ZM22.65,54.53h-.13L9.95,52.12a.7.7,0,0,1,.26-1.37l12.57,2.4a.7.7,0,0,1-.13,1.38ZM86.11,54a.7.7,0,0,1-.21-1.36l14.54-4.73a.7.7,0,1,1,.43,1.32L86.32,54A.69.69,0,0,1,86.11,54ZM37.16,54a.69.69,0,0,1-.22,0l-.87-.28a.7.7,0,0,1,.43-1.32l.87.28A.7.7,0,0,1,37.16,54ZM108,53.13a.7.7,0,0,1-.13-1.38l7.22-1.38a.7.7,0,0,1,.26,1.37l-7.22,1.38Zm-74.81-.41a.69.69,0,0,1-.22,0L16.49,47.34A.7.7,0,0,1,16.92,46l16.45,5.35a.7.7,0,0,1-.21,1.36Zm4-2.27a.69.69,0,0,1-.3-.07l-12.69-6a.7.7,0,1,1,.59-1.26l12.69,6a.7.7,0,0,1-.3,1.33Zm49,0a.7.7,0,0,1-.3-1.33l20.58-9.68A.7.7,0,0,1,107,40.7L86.41,50.39A.69.69,0,0,1,86.11,50.45Zm17.54-2.13a.7.7,0,0,1-.21-1.36l14.23-4.62a.7.7,0,1,1,.43,1.32l-14.23,4.62A.69.69,0,0,1,103.65,48.32ZM85.93,46.55a.7.7,0,0,1-.37-1.28L89.08,43a.7.7,0,0,1,.75,1.17L86.3,46.44A.69.69,0,0,1,85.93,46.55Zm-48.63,0a.69.69,0,0,1-.37-.11l-4-2.57a.7.7,0,0,1,.75-1.17l4,2.57a.7.7,0,0,1-.37,1.28Zm-23.2,0a.69.69,0,0,1-.22,0L3.35,43.07a.7.7,0,0,1,.43-1.32l10.54,3.42a.7.7,0,0,1-.21,1.36Zm7.44-3.42a.69.69,0,0,1-.3-.07l-12.71-6a.7.7,0,0,1,.59-1.26l12.71,6a.7.7,0,0,1-.3,1.33Zm63.15-.2a.7.7,0,0,1-.44-1.23l9.15-7.57a.7.7,0,1,1,.89,1.07l-9.15,7.57A.69.69,0,0,1,84.69,42.9Zm-46.11,0a.69.69,0,0,1-.44-.16L24.05,31.09A.7.7,0,1,1,24.94,30L39,41.67a.7.7,0,0,1-.44,1.23ZM92,42.7a.7.7,0,0,1-.37-1.28l7.66-4.86a.7.7,0,0,1,.75,1.17l-7.66,4.86A.69.69,0,0,1,92,42.7Zm-61.1-.24a.69.69,0,0,1-.37-.11l-5.15-3.27a.7.7,0,1,1,.75-1.17l5.15,3.27a.7.7,0,0,1-.37,1.28ZM41,40a.69.69,0,0,1-.51-.22l-7.83-8.34a.7.7,0,0,1,1-1l7.83,8.34A.7.7,0,0,1,41,40Zm41.25,0a.7.7,0,0,1-.51-1.17l.84-.89a.7.7,0,0,1,1,1l-.84.89A.69.69,0,0,1,82.26,40Zm27.22-.55a.7.7,0,0,1-.3-1.33l7.4-3.48a.7.7,0,1,1,.59,1.26l-7.4,3.48A.69.69,0,0,1,109.48,39.45ZM79,38.12A.7.7,0,0,1,78.4,37l2.92-4a.7.7,0,0,1,1.13.82l-2.92,4A.69.69,0,0,1,79,38.12Zm-34.66,0a.69.69,0,0,1-.56-.29l-2.33-3.2a.7.7,0,1,1,1.13-.82L44.87,37a.7.7,0,0,1-.56,1.1Zm7.64-.62a.7.7,0,0,1-.65-.44L46.86,25.34a.7.7,0,1,1,1.29-.51l4.44,11.71a.7.7,0,0,1-.65,1Zm3.41,0a.7.7,0,0,1-.67-.52l-1.82-7.1a.7.7,0,0,1,1.35-.35L56,36.63a.7.7,0,0,1-.5.85Zm12.57,0-.17,0a.7.7,0,0,1-.5-.85l1.65-6.41a.7.7,0,1,1,1.35.35L68.59,37A.7.7,0,0,1,67.92,37.49Zm7.17,0a.7.7,0,0,1-.61-1l7.09-12.92a.7.7,0,1,1,1.22.67L75.7,37.13A.7.7,0,0,1,75.09,37.49Zm-10.36,0h-.09a.7.7,0,0,1-.6-.78L67.29,11a.7.7,0,1,1,1.38.17L65.42,36.89A.7.7,0,0,1,64.73,37.49Zm-3.09,0a.7.7,0,0,1-.7-.7V35a.7.7,0,1,1,1.39,0V36.8A.7.7,0,0,1,61.63,37.49Zm9.69,0a.7.7,0,0,1-.65-1L79.59,14a.7.7,0,0,1,1.29.51L72,37.05A.7.7,0,0,1,71.32,37.49Zm-23.15,0a.7.7,0,0,1-.61-.36l-10-18.24a.7.7,0,1,1,1.22-.67l10,18.24a.7.7,0,0,1-.61,1Zm10.36,0a.7.7,0,0,1-.69-.61L56.47,26a.7.7,0,0,1,1.38-.17L59.23,36.7a.7.7,0,0,1-.6.78Zm-36-.31a.69.69,0,0,1-.37-.11l-5.6-3.55a.7.7,0,1,1,.75-1.17l5.6,3.55a.7.7,0,0,1-.37,1.28Zm79.59-.9a.7.7,0,0,1-.37-1.28L107,31.69a.7.7,0,0,1,.75,1.17l-5.19,3.29A.69.69,0,0,1,102.14,36.26Zm-16.37,0a.7.7,0,0,1-.51-1.17L95.83,23.84a.7.7,0,1,1,1,1L86.28,36A.69.69,0,0,1,85.77,36.26ZM97,32.7a.7.7,0,0,1-.44-1.23l8.89-7.36a.7.7,0,0,1,.89,1.07l-8.89,7.36A.69.69,0,0,1,97,32.7ZM40.2,32.47a.69.69,0,0,1-.56-.29l-4.4-6.05a.7.7,0,0,1,1.13-.82l4.4,6.05a.7.7,0,0,1-.56,1.1Zm21.43-.17a.7.7,0,0,1-.7-.7v-12a.7.7,0,0,1,1.39,0v12A.7.7,0,0,1,61.63,32.3Zm21.86-.42a.7.7,0,0,1-.56-1.1l6.31-8.68a.7.7,0,1,1,1.13.82L84.05,31.6A.69.69,0,0,1,83.49,31.88ZM30.91,29.25A.69.69,0,0,1,30.4,29L19.33,17.24a.7.7,0,0,1,1-1L31.42,28.08a.7.7,0,0,1-.51,1.17Zm-9.77-.78a.69.69,0,0,1-.44-.16l-6.56-5.42A.7.7,0,1,1,15,21.82l6.56,5.42a.7.7,0,0,1-.44,1.23Zm31.66-.89a.7.7,0,0,1-.67-.52L50,18.91a.7.7,0,1,1,1.35-.35l2.09,8.15a.7.7,0,0,1-.5.85Zm17.71-.18-.17,0a.7.7,0,0,1-.5-.85L72,18.14a.7.7,0,0,1,1.35.35l-2.16,8.39A.7.7,0,0,1,70.51,27.4ZM34.12,24.09a.69.69,0,0,1-.56-.29l-4.13-5.68a.7.7,0,1,1,1.13-.82L34.68,23a.7.7,0,0,1-.56,1.1Zm64.71-1.73a.7.7,0,0,1-.51-1.17l4.61-4.91a.7.7,0,0,1,1,1l-4.61,4.91A.69.69,0,0,1,98.82,22.37Zm-42.31-.94a.7.7,0,0,1-.69-.61L53.46,2.14A.7.7,0,1,1,54.84,2L57.2,20.64a.7.7,0,0,1-.6.78Zm35.37-1.09a.7.7,0,0,1-.56-1.1L94,15.49a.7.7,0,1,1,1.13.82L92.45,20A.69.69,0,0,1,91.88,20.34ZM61.63,17a.7.7,0,0,1-.7-.7V4a.7.7,0,1,1,1.39,0V16.34A.7.7,0,0,1,61.63,17Zm22.55,3.88a.7.7,0,0,1-.61-1L90.44,7.43a.7.7,0,0,1,1.22.67L84.79,20.56A.7.7,0,0,1,84.18,20.92ZM73.35,16.35l-.17,0a.7.7,0,0,1-.5-.85l2.16-8.41a.7.7,0,0,1,1.35.35L74,15.82A.7.7,0,0,1,73.35,16.35ZM36.2,15.71a.7.7,0,0,1-.61-.36l-3-5.5a.7.7,0,1,1,1.22-.67l3,5.5a.7.7,0,0,1-.61,1ZM46,21.9a.7.7,0,0,1-.65-.44L38.51,4.76a.7.7,0,1,1,1.29-.51l6.87,16.7a.7.7,0,0,1-.65,1Zm3.59-6.71a.7.7,0,0,1-.67-.52l-1-4a.7.7,0,1,1,1.35-.35l1,4a.7.7,0,0,1-.5.85ZM81.8,11a.7.7,0,0,1-.65-1L82.38,7a.7.7,0,0,1,1.29.51l-1.22,3.09A.7.7,0,0,1,81.8,11ZM68.46,7.93h-.09a.7.7,0,0,1-.6-.78L68.6.61A.7.7,0,1,1,70,.78l-.83,6.54A.7.7,0,0,1,68.46,7.93ZM44.31,84.43a.7.7,0,0,1,.56,1.1l-2.92,4a.7.7,0,0,1-1.13-.82l2.92-4A.69.69,0,0,1,44.31,84.43Zm11,.62.17,0a.7.7,0,0,1,.5.85l-1.65,6.41A.7.7,0,1,1,53,92l1.65-6.41A.7.7,0,0,1,55.36,85.05Zm-7.17,0a.7.7,0,0,1,.61,1L41.71,99a.7.7,0,0,1-1.22-.67l7.09-12.92A.7.7,0,0,1,48.19,85.05Zm10.36,0h.09a.7.7,0,0,1,.6.78L56,111.59a.7.7,0,1,1-1.38-.17l3.25-25.75A.7.7,0,0,1,58.55,85.05Zm-6.6,0a.7.7,0,0,1,.65,1l-8.92,22.52a.7.7,0,0,1-1.29-.51l8.92-22.52A.7.7,0,0,1,52,85.05ZM39.79,90.66a.7.7,0,0,1,.56,1.1L34,100.44a.7.7,0,1,1-1.13-.82l6.31-8.68A.69.69,0,0,1,39.79,90.66Zm13,4.48.17,0a.7.7,0,0,1,.5.85l-2.16,8.39a.7.7,0,0,1-1.35-.35l2.16-8.39A.7.7,0,0,1,52.77,95.14Zm-21.37,7.07a.7.7,0,0,1,.56,1.1l-2.72,3.75a.7.7,0,1,1-1.13-.82l2.72-3.75A.69.69,0,0,1,31.39,102.21Zm7.7-.58a.7.7,0,0,1,.61,1l-6.86,12.45a.7.7,0,0,1-1.22-.67L38.48,102A.7.7,0,0,1,39.09,101.63Zm10.84,4.57.17,0a.7.7,0,0,1,.5.85l-2.16,8.41a.7.7,0,0,1-1.35-.35l2.16-8.41A.7.7,0,0,1,49.93,106.2Zm-8.46,5.32a.7.7,0,0,1,.65,1l-1.22,3.09a.7.7,0,0,1-1.29-.51L40.83,112A.7.7,0,0,1,41.47,111.52Zm13.34,3.09h.09a.7.7,0,0,1,.6.78l-.83,6.54a.7.7,0,1,1-1.38-.17l.83-6.54A.7.7,0,0,1,54.82,114.61Z" style="fill: #fff"/>
    </g>
  </g>
</svg>
